<svg width="43" height="38" viewBox="0 0 43 38" fill="none" xmlns="http://www.w3.org/2000/svg">
<ellipse cx="21.0541" cy="19" rx="21.0541" ry="19" fill="#EEEFF4"/>
<path d="M25.625 9H16.875C15.8398 9 15 9.83984 15 10.875V27.125C15 28.1602 15.8398 29 16.875 29H25.625C26.6602 29 27.5 28.1602 27.5 27.125V10.875C27.5 9.83984 26.6602 9 25.625 9ZM21.25 27.75C20.5586 27.75 20 27.1914 20 26.5C20 25.8086 20.5586 25.25 21.25 25.25C21.9414 25.25 22.5 25.8086 22.5 26.5C22.5 27.1914 21.9414 27.75 21.25 27.75ZM25.625 23.5312C25.625 23.7891 25.4141 24 25.1562 24H17.3438C17.0859 24 16.875 23.7891 16.875 23.5312V11.3438C16.875 11.0859 17.0859 10.875 17.3438 10.875H25.1562C25.4141 10.875 25.625 11.0859 25.625 11.3438V23.5312Z" fill="#161826"/>
</svg>
