<svg width="22" height="22" viewBox="0 0 22 22" fill="none" xmlns="http://www.w3.org/2000/svg">
<path d="M21.2143 18.5H0.785714C0.57733 18.5 0.37748 18.579 0.23013 18.7197C0.0827804 18.8603 0 19.0511 0 19.25L0 20.75C0 20.9489 0.0827804 21.1397 0.23013 21.2803C0.37748 21.421 0.57733 21.5 0.785714 21.5H21.2143C21.4227 21.5 21.6225 21.421 21.7699 21.2803C21.9172 21.1397 22 20.9489 22 20.75V19.25C22 19.0511 21.9172 18.8603 21.7699 18.7197C21.6225 18.579 21.4227 18.5 21.2143 18.5ZM21.2143 12.5H0.785714C0.57733 12.5 0.37748 12.579 0.23013 12.7197C0.0827804 12.8603 0 13.0511 0 13.25L0 14.75C0 14.9489 0.0827804 15.1397 0.23013 15.2803C0.37748 15.421 0.57733 15.5 0.785714 15.5H21.2143C21.4227 15.5 21.6225 15.421 21.7699 15.2803C21.9172 15.1397 22 14.9489 22 14.75V13.25C22 13.0511 21.9172 12.8603 21.7699 12.7197C21.6225 12.579 21.4227 12.5 21.2143 12.5ZM21.2143 6.5H0.785714C0.57733 6.5 0.37748 6.57902 0.23013 6.71967C0.0827804 6.86032 0 7.05109 0 7.25L0 8.75C0 8.94891 0.0827804 9.13968 0.23013 9.28033C0.37748 9.42098 0.57733 9.5 0.785714 9.5H21.2143C21.4227 9.5 21.6225 9.42098 21.7699 9.28033C21.9172 9.13968 22 8.94891 22 8.75V7.25C22 7.05109 21.9172 6.86032 21.7699 6.71967C21.6225 6.57902 21.4227 6.5 21.2143 6.5ZM21.2143 0.5H0.785714C0.57733 0.5 0.37748 0.579018 0.23013 0.71967C0.0827804 0.860322 0 1.05109 0 1.25L0 2.75C0 2.94891 0.0827804 3.13968 0.23013 3.28033C0.37748 3.42098 0.57733 3.5 0.785714 3.5H21.2143C21.4227 3.5 21.6225 3.42098 21.7699 3.28033C21.9172 3.13968 22 2.94891 22 2.75V1.25C22 1.05109 21.9172 0.860322 21.7699 0.71967C21.6225 0.579018 21.4227 0.5 21.2143 0.5Z" fill="black"/>
</svg>
