<svg width="43" height="38" viewBox="0 0 43 38" fill="none" xmlns="http://www.w3.org/2000/svg">
<ellipse cx="21.4867" cy="19" rx="21.0541" ry="19" fill="#EEEFF4"/>
<path d="M10.4326 19.5V23.75C10.4326 24.3377 10.9074 24.8125 11.4951 24.8125H12.5576V18.4375H11.4951C10.9074 18.4375 10.4326 18.9123 10.4326 19.5ZM25.8389 14.1875H22.1201V12.0625C22.1201 11.4748 21.6453 11 21.0576 11C20.4699 11 19.9951 11.4748 19.9951 12.0625V14.1875H16.2764C14.8088 14.1875 13.6201 15.3762 13.6201 16.8438V25.875C13.6201 27.0471 14.573 28 15.7451 28H26.3701C27.5422 28 28.4951 27.0471 28.4951 25.875V16.8438C28.4951 15.3762 27.3064 14.1875 25.8389 14.1875ZM18.9326 24.8125H16.8076V23.75H18.9326V24.8125ZM17.8701 20.8281C17.1363 20.8281 16.542 20.2338 16.542 19.5C16.542 18.7662 17.1363 18.1719 17.8701 18.1719C18.6039 18.1719 19.1982 18.7662 19.1982 19.5C19.1982 20.2338 18.6039 20.8281 17.8701 20.8281ZM22.1201 24.8125H19.9951V23.75H22.1201V24.8125ZM25.3076 24.8125H23.1826V23.75H25.3076V24.8125ZM24.2451 20.8281C23.5113 20.8281 22.917 20.2338 22.917 19.5C22.917 18.7662 23.5113 18.1719 24.2451 18.1719C24.9789 18.1719 25.5732 18.7662 25.5732 19.5C25.5732 20.2338 24.9789 20.8281 24.2451 20.8281ZM30.6201 18.4375H29.5576V24.8125H30.6201C31.2078 24.8125 31.6826 24.3377 31.6826 23.75V19.5C31.6826 18.9123 31.2078 18.4375 30.6201 18.4375Z" fill="#161826"/>
</svg>
