<svg width="19" height="23" viewBox="0 0 19 23" fill="none" xmlns="http://www.w3.org/2000/svg">
<path d="M15.3662 11.7764C15.3564 9.98438 16.167 8.63184 17.8076 7.63574C16.8896 6.32227 15.5029 5.59961 13.6719 5.45801C11.9385 5.32129 10.0439 6.46875 9.35059 6.46875C8.61816 6.46875 6.93848 5.50684 5.62012 5.50684C2.89551 5.55078 0 7.67969 0 12.0107C0 13.29 0.234375 14.6117 0.703125 15.9756C1.32812 17.7676 3.58398 22.1621 5.9375 22.0889C7.16797 22.0596 8.03711 21.2148 9.63867 21.2148C11.1914 21.2148 11.9971 22.0889 13.3691 22.0889C15.7422 22.0547 17.7832 18.0605 18.3789 16.2637C15.1953 14.7646 15.3662 11.8691 15.3662 11.7764ZM12.6025 3.75879C13.9355 2.17676 13.8135 0.736328 13.7744 0.21875C12.5977 0.287109 11.2354 1.01953 10.459 1.92285C9.60449 2.88965 9.10156 4.08594 9.20898 5.43359C10.4834 5.53125 11.6455 4.87695 12.6025 3.75879Z" fill="black"/>
</svg>
