<svg width="43" height="38" viewBox="0 0 43 38" fill="none" xmlns="http://www.w3.org/2000/svg">
<ellipse cx="21.0541" cy="19" rx="21.0541" ry="19" fill="#EEEFF4"/>
<path d="M27.6071 17.1786H27.0893L23.5685 12.7774C23.3744 12.5349 23.1282 12.3391 22.8482 12.2045C22.5682 12.0699 22.2615 12 21.9508 12H15.0274C14.1804 12 13.4188 12.5156 13.1042 13.3021L11.5536 17.2517C10.6616 17.4828 10 18.2858 10 19.25V22.875C10 23.1611 10.2317 23.3929 10.5179 23.3929H12.0714C12.0714 25.1089 13.4625 26.5 15.1786 26.5C16.8946 26.5 18.2857 25.1089 18.2857 23.3929H22.4286C22.4286 25.1089 23.8197 26.5 25.5357 26.5C27.2518 26.5 28.6429 25.1089 28.6429 23.3929H30.1964C30.4825 23.3929 30.7143 23.1611 30.7143 22.875V20.2857C30.7143 18.5697 29.3232 17.1786 27.6071 17.1786ZM15.1786 24.9464C14.3218 24.9464 13.625 24.2496 13.625 23.3929C13.625 22.5361 14.3218 21.8393 15.1786 21.8393C16.0353 21.8393 16.7321 22.5361 16.7321 23.3929C16.7321 24.2496 16.0353 24.9464 15.1786 24.9464ZM17.5089 17.1786H13.7846L15.0274 14.0714H17.5089V17.1786ZM19.0625 17.1786V14.0714H21.9508L24.4366 17.1786H19.0625ZM25.5357 24.9464C24.679 24.9464 23.9821 24.2496 23.9821 23.3929C23.9821 22.5361 24.679 21.8393 25.5357 21.8393C26.3924 21.8393 27.0893 22.5361 27.0893 23.3929C27.0893 24.2496 26.3924 24.9464 25.5357 24.9464Z" fill="#161826"/>
</svg>
