<svg width="43" height="38" viewBox="0 0 43 38" fill="none" xmlns="http://www.w3.org/2000/svg">
<ellipse cx="21.1622" cy="19" rx="21.0541" ry="19" fill="#EEEFF4"/>
<path d="M26.236 13.8182H16.302C15.4833 13.8181 14.6772 14.0204 13.9555 14.4072C13.2338 14.794 12.619 15.3532 12.1657 16.0351C11.7125 16.7169 11.4349 17.5003 11.3576 18.3154C11.2803 19.1306 11.4058 19.9521 11.7228 20.707C12.0399 21.4619 12.5387 22.1267 13.1748 22.6422C13.811 23.1577 14.5647 23.5079 15.3689 23.6617C16.1731 23.8154 17.0029 23.7679 17.7843 23.5234C18.5657 23.2789 19.2746 22.8449 19.8477 22.2602H22.6882C23.2613 22.8449 23.97 23.2788 24.7513 23.5233C25.5327 23.7678 26.3623 23.8154 27.1665 23.6618C27.9706 23.5081 28.7243 23.1581 29.3604 22.6427C29.9966 22.1274 30.4954 21.4628 30.8126 20.708C31.1298 19.9533 31.2555 19.1318 31.1784 18.3168C31.1014 17.5017 30.824 16.7184 30.3711 16.0364C29.9181 15.3545 29.3035 14.7951 28.5821 14.4081C27.8606 14.0211 27.0547 13.8184 26.236 13.8182ZM19.0333 19.1565C19.0333 19.2553 18.994 19.35 18.9242 19.4199C18.8544 19.4897 18.7596 19.529 18.6608 19.529H17.0469V21.1429C17.0469 21.2417 17.0077 21.3364 16.9378 21.4062C16.868 21.4761 16.7733 21.5153 16.6745 21.5153H15.9296C15.8308 21.5153 15.7361 21.4761 15.6662 21.4062C15.5964 21.3364 15.5572 21.2417 15.5572 21.1429V19.529H13.9432C13.8445 19.529 13.7497 19.4897 13.6799 19.4199C13.61 19.35 13.5708 19.2553 13.5708 19.1565V18.4116C13.5708 18.3129 13.61 18.2181 13.6799 18.1483C13.7497 18.0784 13.8445 18.0392 13.9432 18.0392H15.5572V16.4253C15.5572 16.3265 15.5964 16.2318 15.6662 16.1619C15.7361 16.0921 15.8308 16.0528 15.9296 16.0528H16.6745C16.7733 16.0528 16.868 16.0921 16.9378 16.1619C17.0077 16.2318 17.0469 16.3265 17.0469 16.4253V18.0392H18.6608C18.7596 18.0392 18.8544 18.0784 18.9242 18.1483C18.994 18.2181 19.0333 18.3129 19.0333 18.4116V19.1565ZM25.7373 21.5153C25.4917 21.5153 25.2517 21.4425 25.0475 21.3061C24.8434 21.1697 24.6843 20.9758 24.5903 20.749C24.4963 20.5221 24.4717 20.2725 24.5196 20.0317C24.5675 19.7908 24.6858 19.5696 24.8594 19.396C25.033 19.2224 25.2542 19.1041 25.4951 19.0562C25.7359 19.0083 25.9855 19.0329 26.2124 19.1269C26.4392 19.2208 26.6331 19.38 26.7695 19.5841C26.9059 19.7883 26.9787 20.0283 26.9787 20.2739C26.9787 20.6031 26.8479 20.9189 26.6151 21.1517C26.3823 21.3845 26.0665 21.5153 25.7373 21.5153ZM27.7236 18.5358C27.4781 18.5358 27.2381 18.463 27.0339 18.3266C26.8297 18.1901 26.6706 17.9963 26.5767 17.7694C26.4827 17.5426 26.4581 17.2929 26.506 17.0521C26.5539 16.8113 26.6721 16.5901 26.8458 16.4165C27.0194 16.2428 27.2406 16.1246 27.4814 16.0767C27.7223 16.0288 27.9719 16.0534 28.1987 16.1473C28.4256 16.2413 28.6195 16.4004 28.7559 16.6046C28.8923 16.8087 28.9651 17.0488 28.9651 17.2943C28.9651 17.6236 28.8343 17.9393 28.6015 18.1722C28.3687 18.405 28.0529 18.5358 27.7236 18.5358Z" fill="#161826"/>
</svg>
