<svg width="43" height="38" viewBox="0 0 43 38" fill="none" xmlns="http://www.w3.org/2000/svg">
<ellipse cx="21.3785" cy="19" rx="21.0541" ry="19" fill="#EEEFF4"/>
<path d="M16.2828 19.5C17.7761 19.5 18.9911 18.285 18.9911 16.7917C18.9911 15.2984 17.7761 14.0833 16.2828 14.0833C14.7895 14.0833 13.5745 15.2984 13.5745 16.7917C13.5745 18.285 14.7895 19.5 16.2828 19.5ZM28.1995 15.1667H20.6161C20.3169 15.1667 20.0745 15.4091 20.0745 15.7083V20.5833H12.4911V13.5417C12.4911 13.2424 12.2487 13 11.9495 13H10.8661C10.5669 13 10.3245 13.2424 10.3245 13.5417V25.4583C10.3245 25.7576 10.5669 26 10.8661 26H11.9495C12.2487 26 12.4911 25.7576 12.4911 25.4583V23.8333H29.8245V25.4583C29.8245 25.7576 30.0669 26 30.3661 26H31.4495C31.7487 26 31.9911 25.7576 31.9911 25.4583V18.9583C31.9911 16.8641 30.2937 15.1667 28.1995 15.1667Z" fill="#161826"/>
</svg>
