<svg width="43" height="38" viewBox="0 0 43 38" fill="none" xmlns="http://www.w3.org/2000/svg">
<ellipse cx="21.1622" cy="19" rx="21.0541" ry="19" fill="#EEEFF4"/>
<path d="M20.9783 10C15.5235 10 11.1082 14.4144 11.1082 19.8701V21.7208C11.1082 21.9499 11.172 22.1745 11.2924 22.3694C11.4129 22.5643 11.5852 22.7218 11.7902 22.8243L12.3447 23.1016C12.4222 25.4183 14.3245 27.2727 16.6601 27.2727H17.5854C18.0965 27.2727 18.5108 26.8585 18.5108 26.3474V19.5617C18.5108 19.0506 18.0965 18.6364 17.5854 18.6364H16.6601C15.4517 18.6364 14.3595 19.1329 13.5757 19.9329V19.8701C13.5757 15.7883 16.8965 12.4675 20.9783 12.4675C25.0601 12.4675 28.3809 15.7883 28.3809 19.8701V19.9329C27.5971 19.1329 26.5049 18.6364 25.2965 18.6364H24.3711C23.8601 18.6364 23.4458 19.0506 23.4458 19.5617V26.3474C23.4458 26.8585 23.8601 27.2727 24.3711 27.2727H25.2965C27.6321 27.2727 29.5343 25.4183 29.6119 23.1016L30.1664 22.8243C30.3713 22.7218 30.5437 22.5643 30.6641 22.3694C30.7846 22.1745 30.8484 21.9499 30.8484 21.7208V19.8701C30.8484 14.4154 26.434 10 20.9783 10Z" fill="#161826"/>
</svg>
